<?xml version="1.0" encoding="UTF-8"?>
<svg xmlns="http://www.w3.org/2000/svg" xmlns:xlink="http://www.w3.org/1999/xlink" version="1.1" viewBox="0 0 1825.88 271.35">
  <defs>
    <style>
      .cls-1 {
        fill: none;
      }

      .cls-2 {
        fill: #fff;
      }

      .cls-3 {
        clip-path: url(#clippath);
      }

      .cls-4 {
        fill: #013072;
      }
    </style>
    <clipPath id="clippath">
      <rect class="cls-1" width="1825.88" height="271.35"/>
    </clipPath>
  </defs>
  <!-- Generator: Adobe Illustrator 28.6.0, SVG Export Plug-In . SVG Version: 1.2.0 Build 709)  -->
  <g>
    <g id="Layer_1">
      <g class="cls-3">
        <path class="cls-4" d="M45.58,219.8h170.3V49.5H45.58v170.3ZM160.6,158.93c18.08,4.51,32.81,12.24,39.19,15.02l-.13.51c-22.33-5.75-45.69-8.7-68.99-8.7-23.3,0-46.66,2.95-68.99,8.7l-.13-.51c6.4-2.79,21.19-10.56,39.31-15.07,0-.21,0-.19,0-.4l-44.15-12.5.09-.47,52,6.13c.08-.19.07-.18.15-.37l-45.11-35.22.27-.4,49.53,28.04c.15-.15.13-.13.28-.28l-30.17-52.83.4-.27,37.14,47.92c.2-.08.18-.07.37-.15l-8.02-62.32.47-.09,16.42,60.58h.4l16.42-60.58.47.09-8.02,62.32c.2.08.18.07.37.15l37.14-47.92.4.27-30.17,52.83c.15.15.13.13.28.28l49.53-28.04.27.4-45.11,35.22c.08.19.07.18.15.37l51.99-6.13.09.47-44.15,12.54c0,.21,0,.19,0,.4"/>
        <path class="cls-2" d="M204.64,145.51l-51.99,6.13c-.08-.19-.07-.18-.15-.37l45.11-35.22-.27-.4-49.53,28.04c-.15-.15-.13-.13-.28-.28l30.17-52.83-.4-.27-37.14,47.92c-.19-.08-.17-.07-.37-.15l8.03-62.32-.47-.09-16.42,60.58h-.4l-16.42-60.58-.47.09,8.03,62.32c-.19.08-.17.07-.37.15l-37.14-47.92-.4.27,30.17,52.83c-.15.15-.13.13-.28.28l-49.53-28.04-.27.4,45.11,35.22c-.08.19-.07.18-.15.37l-52-6.13-.09.47,44.15,12.5c0,.21,0,.19,0,.4-18.12,4.51-32.91,12.28-39.31,15.07l.13.51c22.33-5.75,45.69-8.7,68.99-8.7,23.3,0,46.66,2.95,68.99,8.7l.13-.51c-6.38-2.78-21.11-10.51-39.19-15.02,0-.21,0-.19,0-.4l44.15-12.54-.09-.47Z"/>
        <path class="cls-4" d="M343.27,115.87c-3.81,2.57-7.71,4.52-11.69,5.84-3.98,1.33-8.16,1.99-12.55,1.99-6.14,0-11.63-1.31-16.47-3.92-4.85-2.61-8.64-6.36-11.38-11.25-2.74-4.89-4.1-10.69-4.1-17.4,0-6.21,1.24-11.73,3.73-16.53,2.49-4.8,6.01-8.56,10.57-11.25,4.56-2.69,9.78-4.04,15.66-4.04,4.56,0,8.83,1.06,12.81,3.17,3.98,2.11,7.46,5.16,10.44,9.14h.75v-17.53c-3.73-2.07-7.81-3.65-12.24-4.72-4.44-1.08-8.93-1.62-13.49-1.62-8.37,0-16.16,1.82-23.37,5.47-7.21,3.65-12.99,8.91-17.34,15.79-4.35,6.88-6.53,14.88-6.53,23.99s2.07,16.93,6.22,23.68c4.14,6.76,9.8,11.93,16.97,15.54,7.17,3.6,15.14,5.41,23.93,5.41,5.88,0,11.33-1.02,16.35-3.05,5.01-2.03,9.72-5.16,14.11-9.39l-2.36-9.32Z"/>
        <path class="cls-4" d="M407.79,135.27v.62h26.48v-.62c-1.33-1.41-2.49-2.92-3.48-4.54-.99-1.62-1.99-3.56-2.98-5.84-1-2.28-1.99-4.66-2.98-7.15-.08-.17-.15-.35-.19-.56-.04-.21-.1-.39-.18-.56l-26.98-67.13h-14.67l-26.48,67.63c-.17.42-.33.85-.5,1.3-.17.46-.33.89-.5,1.31-1.66,4.23-3.03,7.44-4.1,9.64-1.08,2.2-2.57,4.16-4.48,5.9v.62h22.25v-.62c-.99-1.49-1.6-3.15-1.8-4.97-.21-1.82-.08-3.83.37-6.03.46-2.2,1.22-4.74,2.3-7.65l1.46-3.85h33.26l1.59,4.1c1.08,2.82,1.87,5.31,2.36,7.46.5,2.16.7,4.15.62,5.97-.08,1.82-.54,3.48-1.36,4.97M375.61,101.45l11.8-31.2h.74l12.07,31.2h-24.61Z"/>
        <path class="cls-4" d="M464.23,137.63c5.8,0,11.08-1.14,15.85-3.42,4.76-2.28,8.53-5.45,11.31-9.51,2.77-4.06,4.17-8.7,4.17-13.92s-1.37-9.57-4.11-13.3c-2.73-3.73-6.71-6.8-11.93-9.2l-11.93-5.47c-3.56-1.66-6.15-3.42-7.77-5.28-1.62-1.87-2.43-4.04-2.43-6.53s.64-4.6,1.93-6.34c1.28-1.74,3.04-3.07,5.28-3.98,2.24-.91,4.73-1.37,7.46-1.37,4.14,0,8.02.99,11.62,2.98,3.61,1.99,6.53,4.81,8.77,8.45h.74v-17.28c-2.65-1.74-5.89-3.13-9.7-4.16-3.81-1.04-7.79-1.55-11.93-1.55-5.89,0-11.21,1.16-15.98,3.48-4.77,2.32-8.5,5.53-11.19,9.64-2.69,4.1-4.04,8.68-4.04,13.74s1.41,9.51,4.23,13.37c2.82,3.85,7,7.07,12.56,9.63l11.06,5.1c3.4,1.58,5.95,3.25,7.65,5.04,1.7,1.78,2.55,4.04,2.55,6.77,0,2.57-.7,4.7-2.11,6.4-1.41,1.7-3.25,2.96-5.53,3.79-2.28.83-4.7,1.24-7.27,1.24-4.39,0-8.74-1.2-13.05-3.6-4.31-2.4-8.04-6.01-11.19-10.82h-.74v17.65c3.64,2.74,7.67,4.83,12.06,6.28,4.39,1.45,8.95,2.18,13.68,2.18"/>
        <path class="cls-4" d="M567.85,121.65c-1.7,1.12-3.71,1.89-6.03,2.3-2.32.42-5.18.62-8.58.62h-23.87v-26.48h16.78c3.15,0,5.8.17,7.96.5,2.15.33,3.92.81,5.28,1.43,1.37.62,2.59,1.47,3.67,2.55h.75v-20.39h-.75c-1.16,1.08-2.4,1.95-3.73,2.61s-3.05,1.16-5.16,1.49c-2.11.33-4.79.5-8.02.5h-16.78v-25.98h21.88c3.64,0,6.65.21,9.01.62,2.36.42,4.33,1.04,5.91,1.87,1.57.83,2.98,1.99,4.23,3.48h.75v-17.28h-63.03v.62c.91,1.41,1.64,2.94,2.18,4.6.54,1.66.93,3.54,1.18,5.66.25,2.11.37,4.62.37,7.52v49.48c0,2.98-.12,5.53-.37,7.65-.25,2.11-.64,4-1.18,5.66-.54,1.66-1.27,3.19-2.18,4.6v.62h64.89v-19.02h-.75c-1.24,2.07-2.71,3.67-4.41,4.79"/>
        <path class="cls-4" d="M718.34,61.73c.74-2.36,1.55-4.46,2.42-6.28.87-1.82,1.89-3.6,3.05-5.35v-.62h-20.51v.62c.91,1.74,1.49,3.5,1.74,5.28.25,1.78.23,3.73-.06,5.84-.29,2.11-.81,4.71-1.55,7.77l-11.19,43.51h-.75l-16.66-63.03h-21.01l2.73,7.58-14.67,55.82h-.74l-11.19-43.01c-.83-3.07-1.37-5.68-1.62-7.83-.25-2.15-.23-4.18.06-6.09.29-1.9.93-3.85,1.93-5.84v-.62h-26.23v.62c1.16,1.74,2.18,3.52,3.04,5.35.87,1.82,1.68,3.98,2.43,6.47.74,2.49,1.53,5.18,2.36,8.08l18.52,65.89h16.54l17.16-63.28h.74l16.53,63.28h16.29l18.4-66.63c.74-2.65,1.49-5.16,2.24-7.52"/>
        <path class="cls-4" d="M792.37,121.65c-1.7,1.12-3.71,1.89-6.03,2.3-2.32.42-5.18.62-8.58.62h-23.87v-26.48h16.78c3.15,0,5.8.17,7.96.5,2.16.33,3.92.81,5.28,1.43,1.37.62,2.59,1.47,3.67,2.55h.75v-20.39h-.75c-1.16,1.08-2.41,1.95-3.73,2.61-1.33.66-3.04,1.16-5.16,1.49-2.11.33-4.79.5-8.02.5h-16.78v-25.98h21.88c3.65,0,6.65.21,9.01.62,2.36.42,4.33,1.04,5.91,1.87,1.57.83,2.98,1.99,4.23,3.48h.75v-17.28h-63.03v.62c.91,1.41,1.64,2.94,2.18,4.6.54,1.66.93,3.54,1.18,5.66.25,2.11.37,4.62.37,7.52v49.48c0,2.98-.12,5.53-.37,7.65-.25,2.11-.64,4-1.18,5.66-.54,1.66-1.27,3.19-2.18,4.6v.62h64.89v-19.02h-.74c-1.24,2.07-2.71,3.67-4.41,4.79"/>
        <path class="cls-4" d="M848.25,88.27l-11.93-5.47c-3.57-1.66-6.15-3.42-7.77-5.28-1.62-1.87-2.42-4.04-2.42-6.53s.64-4.6,1.93-6.34c1.28-1.74,3.04-3.07,5.28-3.98,2.24-.91,4.73-1.37,7.46-1.37,4.14,0,8.02.99,11.62,2.98,3.61,1.99,6.53,4.81,8.77,8.45h.74v-17.28c-2.65-1.74-5.88-3.13-9.69-4.16-3.81-1.04-7.79-1.55-11.94-1.55-5.89,0-11.21,1.16-15.97,3.48-4.77,2.32-8.5,5.53-11.19,9.64-2.69,4.1-4.04,8.68-4.04,13.74s1.41,9.51,4.22,13.36c2.82,3.85,7.01,7.07,12.56,9.63l11.06,5.1c3.4,1.58,5.95,3.25,7.65,5.04,1.7,1.78,2.55,4.04,2.55,6.77,0,2.57-.71,4.7-2.11,6.4-1.41,1.7-3.25,2.96-5.53,3.79-2.28.83-4.71,1.24-7.27,1.24-4.4,0-8.75-1.2-13.06-3.6-4.31-2.4-8.04-6.01-11.19-10.82h-.74v17.65c3.64,2.74,7.66,4.83,12.06,6.28,4.39,1.45,8.95,2.18,13.68,2.18,5.8,0,11.09-1.14,15.85-3.42,4.76-2.28,8.53-5.45,11.31-9.51,2.78-4.06,4.17-8.7,4.17-13.92s-1.37-9.57-4.1-13.3c-2.74-3.73-6.71-6.8-11.94-9.2"/>
        <path class="cls-4" d="M870.25,67.26h.75c.99-1.49,2.32-2.71,3.98-3.67,1.66-.95,3.75-1.68,6.28-2.18,2.53-.5,5.57-.74,9.14-.74h7.83v56.32c0,3.15-.12,5.8-.37,7.96-.25,2.16-.68,4.06-1.3,5.72-.62,1.66-1.51,3.19-2.67,4.6v.62h26.23v-.62c-1.16-1.41-2.05-2.94-2.67-4.6-.62-1.66-1.06-3.56-1.31-5.72-.25-2.15-.37-4.81-.37-7.96v-56.32h7.83c3.56,0,6.61.25,9.14.74,2.53.5,4.62,1.22,6.28,2.18,1.65.95,2.98,2.18,3.98,3.67h.74v-17.78h-73.47v17.78Z"/>
        <path class="cls-4" d="M1012.91,121.65c-1.7,1.12-3.71,1.89-6.03,2.3-2.32.42-5.18.62-8.58.62h-23.87v-26.48h16.78c3.15,0,5.8.17,7.96.5,2.15.33,3.92.81,5.28,1.43,1.37.62,2.59,1.47,3.67,2.55h.75v-20.39h-.75c-1.16,1.08-2.4,1.95-3.73,2.61s-3.05,1.16-5.16,1.49c-2.11.33-4.79.5-8.02.5h-16.78v-25.98h21.88c3.64,0,6.65.21,9.01.62,2.36.42,4.33,1.04,5.91,1.87,1.57.83,2.98,1.99,4.23,3.48h.75v-17.28h-63.03v.62c.91,1.41,1.64,2.94,2.17,4.6.54,1.66.93,3.54,1.18,5.66.25,2.11.37,4.62.37,7.52v49.48c0,2.98-.12,5.53-.37,7.65-.25,2.11-.64,4-1.18,5.66-.54,1.66-1.27,3.19-2.17,4.6v.62h64.89v-19.02h-.75c-1.24,2.07-2.71,3.67-4.41,4.79"/>
        <path class="cls-4" d="M1079.35,93.5c4.97-1.99,8.83-4.77,11.56-8.33,2.73-3.56,4.1-7.71,4.1-12.43s-1.33-8.83-3.98-12.31c-2.65-3.48-6.4-6.17-11.25-8.08-4.85-1.91-10.5-2.86-16.97-2.86h-32.57v.62c1.08,1.41,1.89,2.97,2.43,4.66.54,1.7.89,3.56,1.06,5.59.17,2.03.25,4.54.25,7.52v48.98c0,3.15-.1,5.8-.31,7.96-.21,2.16-.58,4.06-1.12,5.72-.54,1.66-1.31,3.23-2.3,4.72v.62h24.86v-.62c-.99-1.49-1.76-3.06-2.3-4.72-.54-1.66-.91-3.56-1.12-5.72-.21-2.15-.31-4.81-.31-7.96v-19.77h6.47l29.21,38.79h21.63v-.25l-32.4-41.09c1.05-.32,2.07-.66,3.05-1.05M1051.38,86.16v-25.73h9.2c5.05,0,9.03,1.06,11.93,3.17,2.9,2.11,4.35,5.2,4.35,9.26,0,2.73-.66,5.1-1.99,7.09-1.33,1.99-3.23,3.52-5.72,4.6-2.49,1.08-5.43,1.62-8.83,1.62h-8.95Z"/>
        <path class="cls-4" d="M1173.96,50.11c.99,1.33,1.76,2.86,2.3,4.6.54,1.74.91,3.73,1.12,5.97.2,2.24.31,4.85.31,7.83v43.14h-.75l-35.68-62.16h-25.73v.37l3.23,4.85v61.91c0,2.98-.1,5.61-.31,7.89-.21,2.28-.58,4.31-1.12,6.09-.54,1.78-1.31,3.34-2.3,4.66v.62h20.51v-.62c-1-1.32-1.76-2.88-2.3-4.66-.54-1.78-.91-3.79-1.12-6.03-.21-2.24-.31-4.89-.31-7.96v-48.49h.75l39.41,67.75h18.77v-67.38c0-3.07.1-5.7.31-7.89.21-2.19.58-4.16,1.12-5.9.54-1.74,1.31-3.27,2.3-4.6v-.62h-20.51v.62Z"/>
        <path class="cls-4" d="M1287.21,93.5c4.97-1.99,8.83-4.77,11.56-8.33,2.73-3.56,4.1-7.71,4.1-12.43s-1.33-8.83-3.98-12.31c-2.65-3.48-6.4-6.17-11.25-8.08-4.85-1.91-10.51-2.86-16.97-2.86h-32.57v.62c1.08,1.41,1.88,2.97,2.42,4.66.54,1.7.89,3.56,1.06,5.59.17,2.03.25,4.54.25,7.52v48.98c0,3.15-.1,5.8-.31,7.96-.21,2.16-.58,4.06-1.12,5.72-.54,1.66-1.31,3.23-2.3,4.72v.62h24.86v-.62c-.99-1.49-1.76-3.06-2.3-4.72-.54-1.66-.91-3.56-1.12-5.72-.21-2.15-.31-4.81-.31-7.96v-19.77h6.46l29.22,38.79h21.63v-.25l-32.4-41.09c1.05-.32,2.07-.66,3.06-1.05M1259.24,86.16v-25.73h9.2c5.06,0,9.03,1.06,11.94,3.17,2.9,2.11,4.35,5.2,4.35,9.26,0,2.73-.66,5.1-1.99,7.09-1.33,1.99-3.23,3.52-5.72,4.6-2.48,1.08-5.43,1.62-8.83,1.62h-8.95Z"/>
        <path class="cls-4" d="M1382.62,121.65c-1.7,1.12-3.71,1.89-6.03,2.3-2.32.42-5.18.62-8.58.62h-23.87v-26.48h16.78c3.15,0,5.8.17,7.96.5,2.16.33,3.92.81,5.28,1.43,1.37.62,2.59,1.47,3.67,2.55h.75v-20.39h-.75c-1.16,1.08-2.4,1.95-3.73,2.61-1.32.66-3.05,1.16-5.16,1.49-2.11.33-4.79.5-8.02.5h-16.78v-25.98h21.88c3.65,0,6.65.21,9.01.62,2.36.42,4.33,1.04,5.9,1.87,1.57.83,2.98,1.99,4.23,3.48h.74v-17.28h-63.03v.62c.91,1.41,1.64,2.94,2.17,4.6.54,1.66.93,3.54,1.18,5.66.25,2.11.37,4.62.37,7.52v49.48c0,2.98-.12,5.53-.37,7.65-.25,2.11-.64,4-1.18,5.66-.54,1.66-1.26,3.19-2.17,4.6v.62h64.9v-19.02h-.75c-1.24,2.07-2.72,3.67-4.41,4.79"/>
        <path class="cls-4" d="M1438.5,88.27l-11.93-5.47c-3.57-1.66-6.16-3.42-7.77-5.28-1.62-1.87-2.43-4.04-2.43-6.53s.64-4.6,1.93-6.34c1.29-1.74,3.05-3.07,5.29-3.98,2.24-.91,4.72-1.37,7.46-1.37,4.14,0,8.02.99,11.62,2.98,3.6,1.99,6.53,4.81,8.77,8.45h.75v-17.28c-2.66-1.74-5.89-3.13-9.7-4.16-3.81-1.04-7.79-1.55-11.94-1.55-5.89,0-11.21,1.16-15.97,3.48-4.77,2.32-8.5,5.53-11.19,9.64-2.69,4.1-4.04,8.68-4.04,13.74s1.41,9.51,4.23,13.36c2.82,3.85,7,7.07,12.56,9.63l11.06,5.1c3.4,1.58,5.95,3.25,7.65,5.04,1.7,1.78,2.55,4.04,2.55,6.77,0,2.57-.71,4.7-2.11,6.4-1.41,1.7-3.26,2.96-5.53,3.79-2.28.83-4.7,1.24-7.27,1.24-4.39,0-8.74-1.2-13.05-3.6-4.31-2.4-8.04-6.01-11.19-10.82h-.75v17.65c3.65,2.74,7.67,4.83,12.06,6.28,4.39,1.45,8.95,2.18,13.67,2.18,5.8,0,11.08-1.14,15.85-3.42,4.76-2.28,8.53-5.45,11.31-9.51,2.78-4.06,4.16-8.7,4.16-13.92s-1.37-9.57-4.1-13.3c-2.74-3.73-6.71-6.8-11.94-9.2"/>
        <path class="cls-4" d="M1526.83,121.65c-1.7,1.12-3.71,1.89-6.03,2.3-2.32.42-5.18.62-8.58.62h-23.87v-26.48h16.78c3.15,0,5.8.17,7.95.5,2.16.33,3.92.81,5.28,1.43,1.37.62,2.59,1.47,3.67,2.55h.74v-20.39h-.74c-1.16,1.08-2.41,1.95-3.73,2.61-1.33.66-3.04,1.16-5.16,1.49-2.11.33-4.79.5-8.02.5h-16.78v-25.98h21.88c3.65,0,6.65.21,9.01.62,2.36.42,4.33,1.04,5.91,1.87,1.57.83,2.98,1.99,4.22,3.48h.75v-17.28h-63.03v.62c.91,1.41,1.64,2.94,2.18,4.6.54,1.66.93,3.54,1.18,5.66.25,2.11.37,4.62.37,7.52v49.48c0,2.98-.12,5.53-.37,7.65-.25,2.11-.64,4-1.18,5.66-.54,1.66-1.27,3.19-2.18,4.6v.62h64.89v-19.02h-.74c-1.24,2.07-2.71,3.67-4.41,4.79"/>
        <path class="cls-4" d="M1593.27,93.5c4.98-1.99,8.83-4.77,11.56-8.33,2.73-3.56,4.1-7.71,4.1-12.43s-1.33-8.83-3.98-12.31c-2.65-3.48-6.4-6.17-11.25-8.08-4.85-1.91-10.51-2.86-16.97-2.86h-32.57v.62c1.08,1.41,1.88,2.97,2.42,4.66.54,1.7.89,3.56,1.06,5.59.17,2.03.25,4.54.25,7.52v48.98c0,3.15-.1,5.8-.31,7.96-.21,2.16-.58,4.06-1.12,5.72-.54,1.66-1.31,3.23-2.3,4.72v.62h24.86v-.62c-1-1.49-1.76-3.06-2.3-4.72-.54-1.66-.91-3.56-1.12-5.72-.21-2.15-.31-4.81-.31-7.96v-19.77h6.47l29.22,38.79h21.63v-.25l-32.4-41.09c1.05-.32,2.07-.66,3.05-1.05M1565.3,86.16v-25.73h9.2c5.06,0,9.03,1.06,11.94,3.17,2.9,2.11,4.35,5.2,4.35,9.26,0,2.73-.66,5.1-1.99,7.09-1.33,1.99-3.23,3.52-5.72,4.6-2.49,1.08-5.43,1.62-8.83,1.62h-8.95Z"/>
        <path class="cls-4" d="M1681.54,50.11c.83,1.49,1.24,3.13,1.24,4.91s-.27,3.73-.81,5.84c-.54,2.11-1.39,4.78-2.55,8.02l-17.03,46h-.62l-16.04-45.63c-1.08-3.07-1.86-5.7-2.36-7.89-.5-2.2-.66-4.23-.5-6.09.17-1.86.75-3.58,1.74-5.16v-.62h-26.48v.62c1.24,1.58,2.34,3.28,3.29,5.1.95,1.82,1.91,3.87,2.86,6.15.95,2.28,1.88,4.66,2.8,7.15l24.61,67.38h15.79l25.11-66.26c1.07-2.74,2.13-5.32,3.17-7.77,1.04-2.44,2.09-4.6,3.17-6.47,1.08-1.86,2.32-3.62,3.73-5.28v-.62h-21.13v.62Z"/>
        <path class="cls-4" d="M1774.41,116.87c-1.24,2.07-2.71,3.67-4.41,4.79-1.7,1.12-3.71,1.89-6.03,2.3-2.32.42-5.18.62-8.58.62h-23.87v-26.48h16.78c3.15,0,5.8.17,7.96.5,2.15.33,3.92.81,5.29,1.43,1.36.62,2.59,1.47,3.67,2.55h.75v-20.39h-.75c-1.16,1.08-2.41,1.95-3.73,2.61-1.32.66-3.04,1.16-5.16,1.49-2.11.33-4.79.5-8.02.5h-16.78v-25.98h21.88c3.65,0,6.65.21,9.01.62,2.36.42,4.33,1.04,5.91,1.86,1.57.83,2.98,1.99,4.23,3.48h.74v-17.28h-63.03v.62c.91,1.41,1.64,2.94,2.18,4.6.54,1.66.93,3.54,1.18,5.66.25,2.11.37,4.62.37,7.52v49.48c0,2.98-.12,5.53-.37,7.65-.25,2.11-.64,4-1.18,5.66-.54,1.66-1.26,3.19-2.18,4.6v.62h64.9v-19.02h-.74Z"/>
        <path class="cls-4" d="M509.2,208.29c-.63,1.05-1.38,1.87-2.23,2.43-.86.56-1.89.96-3.08,1.17-1.23.22-2.79.33-4.62.33h-13.6v-12.89h9.57c1.69,0,3.14.09,4.29.27,1.13.17,2.05.42,2.74.74.68.31,1.29.73,1.83,1.27l.2.2h.39v-12.6h-.39l-.19.18c-.59.55-1.23.99-1.9,1.33-.67.34-1.57.59-2.65.76-1.13.18-2.59.27-4.32.27h-9.56v-13.01h12.44c1.96,0,3.6.11,4.86.33,1.23.22,2.26.54,3.07.97.79.41,1.51,1,2.13,1.76l.2.24h.37v-10.89h-36.15v.29l.11.17c.47.72.85,1.53,1.13,2.38.28.87.49,1.88.62,2.99.13,1.14.2,2.51.2,4.08v27.86c0,1.61-.07,3.01-.2,4.14-.13,1.12-.34,2.13-.62,2.99-.28.85-.66,1.66-1.13,2.39l-.11.17v1.21h37.18v-11.85h-.37l-.2.33Z"/>
        <path class="cls-4" d="M551.43,196.69c2.85-1.14,5.09-2.76,6.67-4.82,1.59-2.08,2.4-4.52,2.4-7.27s-.79-5.17-2.33-7.2c-1.53-2.01-3.72-3.59-6.5-4.68-2.75-1.08-5.98-1.63-9.62-1.63h-18.66v.32l.14.18c.54.71.96,1.51,1.23,2.37.28.88.47,1.87.55,2.94.09,1.11.14,2.49.14,4.1v28.5c0,1.71-.06,3.16-.17,4.33-.11,1.13-.31,2.15-.59,3.02-.28.85-.68,1.67-1.19,2.44l-.11.17v.36h15.07v-.36l-.11-.17c-.51-.78-.92-1.6-1.19-2.45-.28-.87-.48-1.88-.59-3.01-.11-1.16-.17-2.61-.17-4.33v-10.77h3.13l15.81,21.09h12.72v-.36l-17.44-22.47c.29-.1.56-.2.81-.3M548.16,188.21c-.66.99-1.62,1.76-2.87,2.3-1.28.56-2.83.84-4.61.84h-4.27v-12.87h4.41c2.64,0,4.72.55,6.2,1.62,1.43,1.04,2.13,2.54,2.13,4.57,0,1.37-.33,2.56-.99,3.54"/>
        <path class="cls-4" d="M304.09,171.45s2.05,2.37,2.05,8.37.02,14.82.02,18.87c0,6.46-3.29,12.13-10.28,12.13-8.26,0-11.45-5.36-11.45-12.13,0-7.62.02-18.87.02-18.87.01-3.86,1.14-7.13,2.04-8.37v-.34h-15.14v.34c.74,1.33,2.06,3.65,2.06,8.37v18.87c0,11.42,6.38,21.09,20.45,21.09,14.78,0,20.92-9.3,20.92-21.09v-18.87c.11-6.43,2.06-8.37,2.06-8.37v-.35h-12.74v.34Z"/>
        <path class="cls-4" d="M638.44,171.45s0-.35,0-.35h-15.14s0,.36,0,.37c1.47,2.08,2.06,4.59,2.06,9.68v28.56c0,7.23-1.28,8.42-2.06,9.73,0,0,0,.34,0,.34h15.14s0-.33,0-.33c-.11-.48-2.06-1.55-2.06-9.26v-29.05c0-3.36.05-6.9,2.06-9.71"/>
        <path class="cls-4" d="M360.12,171.1s0,.34,0,.35c1.87,2.2,2.06,6.52,2.06,9.94l.05,22.64h-.22l-18.89-32.92h-15.27v.2l1.79,2.73v35.33c0,5.72-.65,8.4-2.06,10.08,0,0,0,.36,0,.36h12.67v-.34s-.01-.01-.02-.02c-.65-.94-2.05-2.34-2.05-10.08v-25.13h.22l20.9,35.57h11.42v-38.41c0-3.97.21-7.63,2.06-9.94,0-.01,0-.35,0-.35h-12.67Z"/>
        <path class="cls-4" d="M448.48,171.1v.34c.88,1.59.86,3.07.26,5.6-.27,1.15-.76,2.62-1.39,4.36l-8.8,24.22h-.26l-8.28-24.01c-.58-1.66-1.02-3.1-1.28-4.29-.7-3.15-.05-4.63.7-5.88,0,0,0-.35,0-.35h-15.97s0,.34,0,.35c2.43,2.88,4.49,8.83,4.98,10.17l13.77,38.18h9.63l14.04-37.59c.6-1.51,1.18-2.95,1.74-4.28,1.26-2.97,2.64-5.2,3.86-6.49,0,0,0-.34,0-.34h-13.02Z"/>
        <path class="cls-4" d="M399.7,210.2v-29.05c0-3.36.05-6.9,2.06-9.71,0,0,0-.35,0-.35h-15.14s0,.36,0,.37c1.47,2.08,2.06,4.59,2.06,9.68v28.56c0,7.23-1.27,8.42-2.06,9.73,0,0,0,.34,0,.34h15.14s0-.33,0-.33c-.1-.16-2.06-1.95-2.06-9.26"/>
        <path class="cls-4" d="M650.55,182.27h.35s.07-.11.17-.25c1.01-1.48,3.02-3.39,10.19-3.39h4.74v31.09c0,7.23-1.27,8.42-2.06,9.73,0,0,0,.34,0,.34h15.14v-.33s-.04-.07-.06-.1c-.29-.55-1.99-1.92-1.99-9.15v-31.58h4.72c7.99,0,9.52,2.45,10.12,3.29.13.19.23.35.23.35h.38v-11.16h-41.92v11.16Z"/>
        <path class="cls-4" d="M734.52,171.41l.03.09c.59,1.62-.45,4.2-.93,5.27-.49,1.1-1.18,2.44-2.03,3.96l-5.85,10.44h-.15l-5.79-10.77c-.72-1.34-1.3-2.55-1.72-3.58-.41-1-1.29-3.54-.63-5.31l.03-.1v-.32h-16.72v.32l.21.2c1.59,1.36,4.11,4.75,7.02,9.87l10.55,18.7v6.12h0v3.42c0,7.23-1.27,8.42-2.06,9.73v.34h15.14v-.33s-.05-.09-.09-.15c-.34-.6-1.98-2.09-1.98-9.11v-3.9h0v-5.93l10.69-18.5c.95-1.64,1.83-3.05,2.59-4.19.77-1.15,1.57-2.24,2.4-3.24.81-.99,1.75-1.95,2.77-2.84l.23-.2v-.32h-13.7v.32Z"/>
        <path class="cls-4" d="M593.68,189.84c-5.45-2.48-6.16-4.29-6.16-6.51,0-1.37,1.15-5.07,8.16-5.07s10.87,4.81,11.67,6.29h.37v-10.58c-2.74-2.01-7.73-3.47-13.07-3.47-8.03,0-17.4,4.57-17.45,14.99-.03,6.15,3.4,10.13,8.19,12.58,1.74.88,4.29,2.07,5.89,2.77,4.59,2.01,7.36,2.68,7.36,5.99s-2.89,5.51-7.57,5.51c-7.76,0-14.08-7.95-14.08-7.95h-.39v10.76c4.52,2.99,7.75,5,15.8,5,6.46,0,17.06-4.61,17.06-15.41,0-9.8-9.39-11.99-15.79-14.9"/>
      </g>
    </g>
  </g>
</svg>